<svg xmlns="http://www.w3.org/2000/svg" id="Layer_1" version="1.1" viewBox="0 0 525.28 517.89"><defs><style>.st0,.st1,.st3{stroke-miterlimit:1.28}.st0,.st1,.st4{fill:none}.st0,.st1,.st3{stroke:#1d1d1b}.st0,.st10,.st13,.st14,.st15,.st16,.st3{stroke-width:.53px}.st1,.st4{stroke-width:.8px}.st10,.st13,.st14,.st15,.st16,.st4{stroke:#000}.st10,.st13,.st14,.st15,.st16{stroke-linejoin:round}.st19{fill:#1d1d1b}.st20,.st21,.st22,.st23{isolation:isolate}.st21,.st22,.st23{font-family:ArialMT,Arial}.st10{fill:#cf588a}.st10,.st24{fill-rule:evenodd}.st10,.st4{stroke-linecap:round}.st21{font-size:13.06px}.st22{font-size:5.34px}.st13{fill:#08a19a}.st14,.st3{fill:#c6c6c6}.st15{fill:#33b6e5}.st23{font-size:7.48px}.st4{stroke-dasharray:1.6 3.2 0 0 0 0;stroke-miterlimit:10}.st16{fill:#a6ff8a}</style></defs><g id="Ebene-1"><a target="_blank"><g id="GK"><path d="M220.24 459.75c0 19.01-23.13 34.43-51.66 34.43s-51.66-15.41-51.66-34.43 23.13-34.43 51.66-34.43 51.66 15.41 51.66 34.43" style="fill:#35b7e5;stroke-linejoin:round;stroke:#000;stroke-width:.53px"/><g class="st20"><g class="st20"><text class="st21" transform="translate(134.83 455.21)"><tspan x="0" y="0">Feldbotanik</tspan></text></g></g><g class="st20"><g class="st20"><text class="st21" transform="translate(138.11 470.88)"><tspan x="0" y="0">Grundkurs</tspan></text></g></g></g></a><a target="_blank"><g id="FBK50"><path d="M220.24 361.58c0 19.01-23.13 34.43-51.66 34.43s-51.66-15.41-51.66-34.43 23.13-34.43 51.66-34.43 51.66 15.41 51.66 34.43" class="st15"/><g class="st20"><g class="st20"><text class="st21" transform="translate(122.5 360.82)"><tspan x="0" y="0">Feldbotanikkurs</tspan></text></g></g><g class="st20"><g class="st20"><text class="st21" transform="translate(161.32 376.49)"><tspan x="0" y="0">50</tspan></text></g></g></g></a><a target="_blank"><g id="FBK200"><path d="M220.24 260.47c0 19.01-23.13 34.43-51.66 34.43s-51.66-15.41-51.66-34.43 23.13-34.43 51.66-34.43 51.66 15.41 51.66 34.43" class="st15"/><g class="st20"><g class="st20"><text class="st21" transform="translate(122.5 259.71)"><tspan x="0" y="0">Feldbotanikkurs</tspan></text></g></g><g class="st20"><g class="st20"><text class="st21" transform="translate(157.69 275.38)"><tspan x="0" y="0">200</tspan></text></g></g></g></a><a target="_blank"><g id="FBK400"><path d="M220.24 160.83c0 19.01-23.13 34.43-51.66 34.43s-51.66-15.41-51.66-34.43 23.13-34.43 51.66-34.43 51.66 15.41 51.66 34.43" class="st15"/><g class="st20"><g class="st20"><text class="st21" transform="translate(122.5 160.07)"><tspan x="0" y="0">Feldbotanikkurs</tspan></text></g></g><g class="st20"><g class="st20"><text class="st21" transform="translate(157.69 175.74)"><tspan x="0" y="0">400</tspan></text></g></g></g></a><a target="_blank"><g id="FBK600"><path d="M220.24 61.38c0 19.01-23.13 34.43-51.66 34.43s-51.66-15.41-51.66-34.43 23.13-34.43 51.66-34.43 51.66 15.41 51.66 34.43" class="st15"/><g class="st20"><g class="st20"><text class="st21" transform="translate(122.5 60.62)"><tspan x="0" y="0">Feldbotanikkurs</tspan></text></g></g><g class="st20"><g class="st20"><text class="st21" transform="translate(157.69 76.29)"><tspan x="0" y="0">600</tspan></text></g></g></g></a><a target="_blank"><g id="Moose"><path d="M507.28 487.34h-65.19c0-19.32 14.59-34.99 32.59-34.99s32.59 15.67 32.59 34.99h.01Z" style="fill:#52933d;stroke:#231e1e;stroke-width:.53px;stroke-miterlimit:1.28"/><g class="st20"><g class="st20"><text class="st23" transform="translate(463.47 475.2)"><tspan x="0" y="0">Moose</tspan></text></g></g></g></a><a target="_blank"><g id="Pilze-GK"><path d="M402.96 443.7c2.28 0 14.52 6.48 15.94 8.44s4.44 16.53 3.94 18.97c-.51 2.44-8.98 14.13-11.03 15.21-2.05 1.09-15.64 1.09-17.69 0s-10.53-12.77-11.03-15.21c-.51-2.44 1.74-16.48 3.16-18.44s14.44-8.97 16.72-8.97h-.01Z" class="st10"/><g class="st20"><g class="st20"><text class="st23" transform="translate(394.85 463.78)"><tspan x="0" y="0">Pilze</tspan></text></g></g><g class="st20"><g class="st20"><text class="st23" transform="translate(385.5 471.5)"><tspan x="0" y="0">Grundkurs</tspan></text></g></g></g></a><a target="_blank"><g id="Pilze-VK"><path d="M434.68 422.65H369.2c-.82-1.75-1.23-3.57-1.23-5.39 0-11.13 15.22-20.16 33.97-20.16s33.97 9.03 33.97 20.16c0 1.82-.42 3.63-1.23 5.39h0Z" class="st10"/><g class="st20"><g class="st20"><g class="st20"><text class="st23" transform="translate(375.97 415.24)"><tspan x="0" y="0">Pilze V</tspan></text></g></g><g class="st20"><g class="st20"><text class="st23" transform="translate(398.83 415.24)"><tspan x="0" y="0">e</tspan></text></g></g><g class="st20"><g class="st20"><text class="st23" transform="translate(402.99 415.24)"><tspan x="0" y="0">r</tspan></text></g></g><g class="st20"><g class="st20"><text class="st23" transform="translate(405.48 415.24)"><tspan x="0" y="0">tiefung</tspan></text></g></g></g></g></a><a target="_blank"><g id="Frühblüher"><path d="M326.1 467.38c0 10.91-13.27 19.76-29.64 19.76s-29.64-8.85-29.64-19.76 13.27-19.76 29.64-19.76 29.64 8.85 29.64 19.76" style="fill:#d6fff5;stroke-linejoin:round;stroke:#000;stroke-width:.53px"/><g class="st20"><g class="st20"><text class="st23" transform="translate(278.38 469.17)"><tspan x="0" y="0">Frühblüher</tspan></text></g></g></g></a><a target="_blank"><g id="Bäumer"><path d="M325.51 419.88c0 10.89-13.25 19.72-29.58 19.72s-29.58-8.83-29.58-19.72 13.25-19.72 29.58-19.72 29.58 8.83 29.58 19.72" style="fill:#919959;stroke-linejoin:round;stroke:#000;stroke-width:.53px"/><g class="st20"><g class="st20"><text class="st23" transform="translate(281.28 417.28)"><tspan x="0" y="0">Bäume &amp;</tspan></text></g></g><g class="st20"><g class="st20"><text class="st23" transform="translate(280.46 425.61)"><tspan x="0" y="0">Sträucher</tspan></text></g></g></g></a><a target="_blank"><g id="Knospen"><path d="M326.04 361.58c0 10.89-13.24 19.72-29.58 19.72s-29.58-8.83-29.58-19.72 13.24-19.72 29.58-19.72 29.58 8.83 29.58 19.72" style="fill:#929858;stroke-linejoin:round;stroke:#000;stroke-width:.53px"/><g class="st20"><g class="st20"><text class="st23" transform="translate(281.7 363.62)"><tspan x="0" y="0">Knospen</tspan></text></g></g></g></a><a target="_blank"><g id="Neophyten"><path d="M67.61 467.38c0 10.91-13.27 19.76-29.64 19.76s-29.64-8.85-29.64-19.76 13.27-19.76 29.64-19.76 29.64 8.85 29.64 19.76" style="fill:#ff7c6d;stroke-linejoin:round;stroke:#000;stroke-width:.53px"/><g class="st20"><g class="st20"><text class="st23" transform="translate(23.66 459.81)"><tspan x="0" y="0">Invasive</tspan></text></g></g><g class="st20"><g class="st20"><text class="st23" transform="translate(15.76 468.14)"><tspan x="0" y="0">Neophyten &amp;</tspan></text></g></g><g class="st20"><g class="st20"><text class="st23" transform="translate(12.64 476.48)"><tspan x="0" y="0">Ersatzpﬂanzen</tspan></text></g></g></g></a><a target="_blank"><g id="Wiesengräser-GK"><path d="M67.56 419.88c0 10.89-13.24 19.72-29.58 19.72S8.4 430.77 8.4 419.88s13.24-19.72 29.58-19.72 29.58 8.83 29.58 19.72" class="st16"/><g class="st20"><g class="st20"><text class="st23" transform="translate(14.91 417.9)"><tspan x="0" y="0">Wiesengräser</tspan></text></g></g><g class="st20"><g class="st20"><text class="st23" transform="translate(21.07 424.84)"><tspan x="0" y="0">Grundkurs</tspan></text></g></g></g></a><a target="_blank"><g id="Sauergräser"><path d="M67.56 251.8c0 10.89-13.24 19.72-29.58 19.72S8.4 262.69 8.4 251.8s13.24-19.72 29.58-19.72 29.58 8.83 29.58 19.72" class="st16"/><g class="st20"><g class="st20"><text class="st23" transform="translate(17.4 254.16)"><tspan x="0" y="0">Sauergräser</tspan></text></g></g></g></a><a target="_blank"><g id="Wiesegräser-VK"><path d="M67.56 301.73c0 10.89-13.24 19.72-29.58 19.72S8.4 312.62 8.4 301.73s13.24-19.72 29.58-19.72 29.58 8.83 29.58 19.72" class="st16"/><g class="st20"><g class="st20"><text class="st23" transform="translate(14.31 299.39)"><tspan x="0" y="0">Wiesengräser</tspan></text></g></g><g class="st20"><g class="st20"><g class="st20"><text class="st23" transform="translate(20.71 307.72)"><tspan x="0" y="0">V</tspan></text></g></g><g class="st20"><g class="st20"><text class="st23" transform="translate(25.28 307.72)"><tspan x="0" y="0">e</tspan></text></g></g><g class="st20"><g class="st20"><text class="st23" transform="translate(29.44 307.72)"><tspan x="0" y="0">r</tspan></text></g></g><g class="st20"><g class="st20"><text class="st23" transform="translate(31.93 307.72)"><tspan x="0" y="0">tiefung</tspan></text></g></g></g></g></a><a target="_blank"><g id="Korbblütler"><path d="M67.56 199.96c0 10.89-13.24 19.72-29.58 19.72S8.4 210.85 8.4 199.96s13.24-19.72 29.58-19.72 29.58 8.83 29.58 19.72" style="fill:#ffff80;stroke-linejoin:round;stroke:#000;stroke-width:.53px"/><g class="st20"><g class="st20"><text class="st23" transform="translate(19.89 201.76)"><tspan x="0" y="0">Korbblütler</tspan></text></g></g></g></a><a target="_blank"><g id="Alpenflora"><path d="M326.1 301.73c0 10.91-13.27 19.76-29.64 19.76s-29.64-8.85-29.64-19.76 13.27-19.76 29.64-19.76 29.64 8.85 29.64 19.76" style="stroke-linejoin:round;stroke:#000;fill:#f18aff;stroke-width:.53px"/><g class="st20"><g class="st20"><text class="st23" transform="matrix(.94 0 0 1 280.63 298.92)"><tspan x="0" y="0">Alpenﬂora</tspan></text></g></g><g class="st20"><g class="st20"><text class="st23" transform="matrix(.94 0 0 1 280.04 307.25)"><tspan x="0" y="0">Grundkurs</tspan></text></g></g></g></a><a target="_blank"><g id="Glarnerland"><path d="M326.1 251.8c0 10.91-13.27 19.76-29.64 19.76s-29.64-8.85-29.64-19.76 13.27-19.76 29.64-19.76 29.64 8.85 29.64 19.76" class="st13"/><g class="st20"><g class="st20"><text class="st23" transform="translate(287.94 249.05)"><tspan x="0" y="0">Flora</tspan></text></g></g><g class="st20"><g class="st20"><text class="st23" transform="translate(276.92 257.38)"><tspan x="0" y="0">Glarnerland</tspan></text></g></g></g></a><a target="_blank"><g id="Wallis"><path d="M326.1 199.96c0 10.91-13.27 19.76-29.64 19.76s-29.64-8.85-29.64-19.76 13.27-19.76 29.64-19.76 29.64 8.85 29.64 19.76" class="st13"/><g class="st20"><g class="st20"><g class="st20"><text class="st23" transform="translate(277.07 202.38)"><tspan x="0" y="0">Flora W</tspan></text></g></g><g class="st20"><g class="st20"><text class="st23" transform="translate(302.96 202.38)"><tspan x="0" y="0">a</tspan></text></g></g><g class="st20"><g class="st20"><text class="st23" transform="translate(307.12 202.38)"><tspan x="0" y="0">l</tspan></text></g></g><g class="st20"><g class="st20"><text class="st23" transform="translate(308.78 202.38)"><tspan x="0" y="0">lis</tspan></text></g></g></g></g></a><a target="_blank"><g id="Ausland"><path d="M326.04 148.78c0 10.89-13.24 19.72-29.58 19.72s-29.58-8.83-29.58-19.72 13.24-19.72 29.58-19.72 29.58 8.83 29.58 19.72" class="st13"/><g class="st20"><g class="st20"><text class="st23" transform="translate(287.94 141.64)"><tspan x="0" y="0">Flora</tspan></text></g></g><g class="st20"><g class="st20"><text class="st23" transform="translate(272.97 149.36)"><tspan x="0" y="0">Montenegro &amp;</tspan></text></g></g><g class="st20"><g class="st20"><text class="st23" transform="translate(281.91 157.08)"><tspan x="0" y="0">Albanien</tspan></text></g></g></g></a><a target="_blank"><g id="Zermatt"><path d="M326.35 61.38c0 10.91-13.27 19.76-29.64 19.76s-29.64-8.85-29.64-19.76 13.27-19.76 29.64-19.76 29.64 8.85 29.64 19.76" class="st13"/><g class="st20"><g class="st20"><text class="st23" transform="translate(273.75 62.57)"><tspan x="0" y="0">Flora Zermatt</tspan></text></g></g></g></a><a target="_blank"><g id="Repi400"><path d="M67.56 148.78c0 10.89-13.24 19.72-29.58 19.72S8.4 159.67 8.4 148.78s13.24-19.72 29.58-19.72 29.58 8.83 29.58 19.72" class="st15"/><g class="st20"><g class="st20"><text class="st23" transform="translate(13.86 150.42)"><tspan x="0" y="0">Repetition 400</tspan></text></g></g></g></a><a target="_blank"><g id="Repi600"><path d="M67.56 38.93c0 10.89-13.24 19.72-29.58 19.72S8.4 49.82 8.4 38.93s13.24-19.72 29.58-19.72 29.58 8.83 29.58 19.72" class="st15"/><g class="st20"><g class="st20"><text class="st23" transform="translate(13.86 40.54)"><tspan x="0" y="0">Repetition 600</tspan></text></g></g></g></a><a target="_blank"><g id="ELK"><path d="M67.61 91.65c0 10.91-13.27 19.76-29.64 19.76S8.33 102.56 8.33 91.65 21.6 71.89 37.97 71.89s29.64 8.85 29.64 19.76" style="fill:#a682f0;stroke-linejoin:round;stroke:#000;stroke-width:.53px"/><g class="st20"><g class="st20"><text class="st23" transform="translate(18.44 89.61)"><tspan x="0" y="0">Exkursions-</tspan></text></g></g><g class="st20"><g class="st20"><text class="st23" transform="translate(22.81 97.94)"><tspan x="0" y="0">leiterkurs</tspan></text></g></g></g></a><path d="m260 257.34 6.81-3.37-7.47-1.4.66 4.76Z" class="st19"/><path d="m261.1 254.76-41.04 5.66" class="st1"/><path d="m40.34 329.08-2.4-7.21-2.4 7.21h4.81Z" class="st19"/><path d="M37.94 327.64v72.71" class="st1"/><path d="m259.13 363.99 7.21-2.4-7.21-2.4V364Z" class="st19"/><path d="M260.57 361.58h-40.33" class="st1"/><path d="m260.92 425.54 5.42-5.33-7.53 1.01 2.11 4.32Z" class="st19"/><path d="m261.16 422.74-45.9 22.47" class="st1"/><path d="m172.26 403.22-2.4-7.21-2.4 7.21h4.81-.01Z" class="st19"/><path d="M169.86 401.78v23.68" class="st1"/><path d="m260.45 153.01 6.37-4.15-7.58-.5 1.22 4.65h-.01Z" class="st19"/><path d="m261.23 150.32-41.17 10.76" class="st1"/><path d="m74.63 42.75-6.57-3.82 7.55-.89-.98 4.71Z" class="st19"/><path d="M119.92 49.72S87.14 42.9 73.7 40.11" class="st1"/><path d="m74.28 153-6.42-4.06 7.58-.6-1.15 4.67h-.01Z" class="st19"/><path d="M116.98 161.08s-30.63-7.58-43.52-10.76" class="st1"/><path d="m74.43 257.81-6.88-3.23 7.44-1.54-.56 4.77Z" class="st19"/><path d="m116.98 260.42-43.7-5.17" class="st1"/><path d="m75.46 200.22-7.59-.31 6.26-4.31 1.33 4.62Z" class="st19"/><path d="M128.29 182.47s-39.96 11.54-54.89 15.85" class="st1"/><path d="m260.92 293.49 7.53 1.01-5.42-5.33-2.11 4.32Z" class="st19"/><path d="m263.27 291.97-44.81-21.93" class="st1"/><path d="m259.85 63.78 7.21-2.4-7.21-2.4v4.81Z" class="st19"/><path d="M261.29 61.38h-40.96" class="st1"/><path d="m73.02 81.82-6.24 4.33 7.6.28-1.35-4.61h-.01Z" class="st19"/><path d="M72.32 84.53c13.46-3.94 46.8-13.71 46.8-13.71" class="st1"/><path d="m400.55 429.86 2.4-7.21 2.4 7.21h-4.81.01Z" class="st19"/><path d="M402.96 443.7v-15.28" class="st1"/><path d="m70.68 104.72-4.71-5.96 7.35 1.94-2.63 4.02h-.01Z" class="st19"/><path d="M128.14 139.5s-42.75-28.01-57.35-37.58" class="st1"/><path d="m73.72 295.63-5.86 4.84 7.59-.36-1.73-4.48Z" class="st19"/><path d="M73.24 298.39c14.13-5.47 51.22-19.81 51.22-19.81" class="st1"/><path d="m298.31 388.51-2.4-7.21-2.4 7.21h4.81-.01Z" class="st19"/><path d="M295.9 387.07v12.76" class="st1"/><path d="m265.06 213.73 3.97-6.48-7.06 2.81 3.1 3.68h-.01Z" class="st19"/><path d="M264.61 210.96c-12.4 10.45-46.69 39.31-46.69 39.31" class="st1"/><path d="m171.81 302.43-2.4-7.21-2.4 7.21h4.81-.01Z" class="st19"/><path d="M169.41 300.99v26.17" class="st1"/><path d="m170.99 202.45-2.46-7.19-2.34 7.23 4.81-.04Z" class="st19"/><path d="M168.58 201.03c.08 8.96.21 25.22.21 25.22" class="st1"/><path d="m171.19 103.02-2.4-7.21-2.4 7.21h4.81-.01Z" class="st19"/><path d="M168.79 101.58v24.79" class="st1"/><path d="m269.43 343.26 6.67 3.64-3.15-6.92-3.52 3.27Z" class="st19"/><path d="M272.17 342.68c-13.85-14.9-59.59-64.1-59.59-64.1" class="st1"/><path d="m376.91 457.65 7.31 2.08-4.6-6.05-2.71 3.97ZM330.29 425.81l-4.6-6.05 7.31 2.08-2.71 3.97Z" class="st19"/><path d="M379.46 456.47c-10.99-7.5-38.02-25.96-49.01-33.46" class="st1"/><path d="m259.97 464.37 6.85 3.3-7.46 1.47.61-4.77Z" class="st24"/><path d="M220.73 461.78s28.02 3.58 40.36 5.16" class="st4"/><path d="m74.77 469.23-7.45-1.49 6.86-3.28.6 4.77h-.01Z" class="st24"/><path d="M116.38 461.59s-30.4 3.81-43.35 5.43" class="st4"/><path d="m73.21 425.42-5.45-5.3 7.54.97-2.09 4.33Z" class="st24"/><path d="M120.91 445.79s-34.58-16.71-47.96-23.17" class="st4"/><a target="_blank"><g id="Zertifikat200"><path d="M507.15 456.42s.67.61 1.11 2.49c.46 2.01.44 1.89 1.78 9.14 0 0-1.6-1.14-2.65.4l-1.03-9.11s-.32-2.11.29-2.83l.51-.07v-.02Z" class="st3"/><path d="m506.16 453.59-1.16-6.93" class="st0"/><path d="M504.92 455.47c.14.85.93 1.42 1.78 1.29.85-.14 1.42-.93 1.29-1.78-.14-.85-.93-1.42-1.78-1.29-.85.14-1.42.93-1.29 1.78" class="st14"/><path d="m497.49 450.12-2.23 10.25s-16.94 3.98-28.03-6.89l3.08-9.69 11.6 9.19 15.57-2.86Z" class="st3"/><path d="m510.31 445.63-21.71-16.84-27.92 3.62 21.8 18.5 27.82-5.26v-.01Z" class="st3"/><g class="st20"><g class="st20"><text class="st22" transform="rotate(14.31 -1502.439 2096.05)"><tspan x="0" y="0">Zertiprüfung</tspan></text></g></g><g class="st20"><g class="st20"><text class="st22" transform="rotate(14.31 -1531.934 2136.327)"><tspan x="0" y="0">60</tspan></text></g></g></g></a><a target="_blank"><g id="Zertifikat2001" data-name="Zertifikat200"><path d="M221.2 236.31s.59.69.78 2.61c.2 2.05.19 1.93.6 9.29 0 0-1.44-1.33-2.68.06l.14-9.17s-.05-2.13.65-2.77h.51v-.02Z" class="st3"/><path d="m220.58 233.38-.27-7.02" class="st0"/><path d="M219.11 235.08c.03.86.74 1.53 1.6 1.51a1.56 1.56 0 0 0 1.51-1.6 1.56 1.56 0 0 0-1.6-1.51c-.86.03-1.53.74-1.51 1.6" class="st14"/><path d="m211.96 229-3.13 9.41s-19.74 2.98-30.76-11.87l3.91-9.42 11.85 12.91 18.13-1.03Z" class="st3"/><path d="m222.97 226.15-19.38-19.48-28.15.02 19.26 21.13 28.26-1.66h.01Z" class="st3"/><g class="st20"><g class="st20"><text class="st22" transform="rotate(21.65 -461.626 591.391)"><tspan x="0" y="0">Zertiprüfung</tspan></text></g></g><g class="st20"><g class="st20"><text class="st22" transform="rotate(21.65 -483.346 614.166)"><tspan x="0" y="0">200</tspan></text></g></g></g></a><a target="_blank"><g id="Zertifikat400"><path d="M220.92 134.78s.74.54 1.35 2.37c.66 1.95.62 1.84 2.67 8.91 0 0-1.7-.98-2.6.66l-1.92-8.97s-.52-2.07 0-2.85l.49-.12Z" class="st3"/><path d="m219.65 132.06-1.84-6.78" class="st0"/><path d="M218.61 134.05a1.557 1.557 0 0 0 3.01-.79 1.557 1.557 0 0 0-3.01.79" class="st14"/><path d="m210.66 128.2-2.89 9.49s-19.65 3.48-31.05-11.09l3.67-9.51 12.17 12.6 18.1-1.49Z" class="st3"/><path d="m221.48 125.06-19.86-18.98-28.14.73 19.79 20.63 28.21-2.38Z" class="st3"/><g class="st20"><g class="st20"><text class="st22" transform="rotate(20.26 -219.951 569.995)"><tspan x="0" y="0">Zertiprüfung</tspan></text></g></g><g class="st20"><g class="st20"><text class="st22" transform="rotate(20.26 -242.87 594.622)"><tspan x="0" y="0">400</tspan></text></g></g></g></a><a target="_blank"><g id="Zertifikat600"><path d="M220.61 34.73s.81.43 1.69 2.14c.95 1.83.89 1.73 4 8.4 0 0-1.83-.7-2.47 1.05l-3.27-8.57s-.83-1.96-.42-2.82l.47-.2Z" class="st3"/><path d="m218.94 32.23-2.85-6.42" class="st0"/><path d="M218.21 34.36a1.56 1.56 0 0 0 2.86-1.24 1.56 1.56 0 0 0-2.86 1.24" class="st14"/><path d="m209.32 28.59-2.83 9.51s-19.63 3.6-31.12-10.9l3.62-9.54 12.25 12.53 18.09-1.6Z" class="st3"/><path d="M220.22 25.39 200.24 6.53l-28.13.9 19.92 20.51 28.19-2.55Z" class="st3"/><g class="st20"><g class="st20"><text class="st22" transform="rotate(19.25 53.203 543.374)"><tspan x="0" y="0">Zertiprüfung</tspan></text></g></g><g class="st20"><g class="st20"><text class="st22" transform="rotate(19.25 29.335 569.503)"><tspan x="0" y="0">600</tspan></text></g></g></g></a><g class="st20"><text class="st20" style="font-family:ArialMT,Arial;isolation:isolate;fill:#1d1d1b;font-size:12.82px" transform="rotate(-.08 365099.807 -97799.709)"><tspan x="0" y="0">Starte hier</tspan></text></g></g></svg>