<?xml version="1.0" encoding="UTF-8"?>
<svg id="Layer_1" xmlns="http://www.w3.org/2000/svg" xmlns:xlink="http://www.w3.org/1999/xlink" xmlns:serif="http://www.serif.com/" version="1.1" viewBox="0 0 525.28 517.89">
  <!-- Generator: Adobe Illustrator 30.0.0, SVG Export Plug-In . SVG Version: 2.1.1 Build 123)  -->
  <defs>
    <style>
      .st0, .st1, .st2, .st3 {
        stroke-miterlimit: 1.28;
      }

      .st0, .st1, .st4 {
        fill: none;
      }

      .st0, .st1, .st3 {
        stroke: #1d1d1b;
      }

      .st0, .st5, .st6, .st7, .st8, .st9, .st10, .st11, .st12, .st13, .st14, .st15, .st2, .st16, .st3, .st17 {
        stroke-width: .53px;
      }

      .st1, .st4 {
        stroke-width: .8px;
      }

      .st5 {
        fill: #f18aff;
      }

      .st5, .st6, .st7, .st8, .st9, .st10, .st11, .st12, .st13, .st14, .st15, .st4, .st16, .st17 {
        stroke: #000;
      }

      .st5, .st6, .st7, .st8, .st9, .st10, .st11, .st12, .st13, .st14, .st15, .st16, .st17 {
        stroke-linejoin: round;
      }

      .st6 {
        fill: #919959;
      }

      .st18 {
        font-size: 12.82px;
      }

      .st18, .st19 {
        fill: #1d1d1b;
      }

      .st18, .st20, .st21, .st22, .st23 {
        isolation: isolate;
      }

      .st18, .st21, .st22, .st23 {
        font-family: ArialMT, Arial;
      }

      .st7 {
        fill: #929858;
      }

      .st8 {
        fill: #ffff80;
      }

      .st9 {
        fill: #ff7c6d;
      }

      .st10 {
        fill: #cf588a;
      }

      .st10, .st24 {
        fill-rule: evenodd;
      }

      .st10, .st4 {
        stroke-linecap: round;
      }

      .st11 {
        fill: #35b7e5;
      }

      .st21 {
        font-size: 13.06px;
      }

      .st22 {
        font-size: 5.34px;
      }

      .st12 {
        fill: #a682f0;
      }

      .st13 {
        fill: #08a19a;
      }

      .st14, .st3 {
        fill: #c6c6c6;
      }

      .st15 {
        fill: #33b6e5;
      }

      .st23 {
        font-size: 7.48px;
      }

      .st2 {
        fill: #52933d;
        stroke: #231e1e;
      }

      .st4 {
        stroke-dasharray: 1.6 3.2 0 0 0 0;
        stroke-miterlimit: 10;
      }

      .st16 {
        fill: #a6ff8a;
      }

      .st17 {
        fill: #d6fff5;
      }
    </style>
  </defs>
  <g id="Ebene-1" serif:id="Ebene 1">
    <a href="https://www.botanikexkursionen.ch/beschreibung/feldbotanik-grundkurs" target="_blank" rel="noopener noreferrer">
      <g id="GK">
        <path class="st11" d="M220.24,459.75c0,19.01-23.13,34.43-51.66,34.43s-51.66-15.41-51.66-34.43,23.13-34.43,51.66-34.43,51.66,15.41,51.66,34.43"/>
        <g>
          <g class="st20">
            <g class="st20">
              <text class="st21" transform="translate(134.83 455.21)"><tspan x="0" y="0">Feldbotanik</tspan></text>
            </g>
          </g>
          <g class="st20">
            <g class="st20">
              <text class="st21" transform="translate(138.11 470.88)"><tspan x="0" y="0">Grundkurs</tspan></text>
            </g>
          </g>
        </g>
      </g>
    </a>
    <a href="https://www.botanikexkursionen.ch/beschreibung/feldbotanik-kurs-50" target="_blank" rel="noopener noreferrer">
      <g id="FBK50">
        <path class="st15" d="M220.24,361.58c0,19.01-23.13,34.43-51.66,34.43s-51.66-15.41-51.66-34.43,23.13-34.43,51.66-34.43,51.66,15.41,51.66,34.43"/>
        <g>
          <g class="st20">
            <g class="st20">
              <text class="st21" transform="translate(122.5 360.82)"><tspan x="0" y="0">Feldbotanikkurs</tspan></text>
            </g>
          </g>
          <g class="st20">
            <g class="st20">
              <text class="st21" transform="translate(161.32 376.49)"><tspan x="0" y="0">50</tspan></text>
            </g>
          </g>
        </g>
      </g>
    </a>
    <a href="https://www.botanikexkursionen.ch/beschreibung/feldbotanik-kurs-200" target="_blank" rel="noopener noreferrer">
      <g id="FBK200">
        <path class="st15" d="M220.24,260.47c0,19.01-23.13,34.43-51.66,34.43s-51.66-15.41-51.66-34.43,23.13-34.43,51.66-34.43,51.66,15.41,51.66,34.43"/>
        <g>
          <g class="st20">
            <g class="st20">
              <text class="st21" transform="translate(122.5 259.71)"><tspan x="0" y="0">Feldbotanikkurs</tspan></text>
            </g>
          </g>
          <g class="st20">
            <g class="st20">
              <text class="st21" transform="translate(157.69 275.38)"><tspan x="0" y="0">200</tspan></text>
            </g>
          </g>
        </g>
      </g>
    </a>
    <a href="https://www.botanikexkursionen.ch/beschreibung/feldbotanik-kurs-400" target="_blank" rel="noopener noreferrer">
      <g id="FBK400">
        <path class="st15" d="M220.24,160.83c0,19.01-23.13,34.43-51.66,34.43s-51.66-15.41-51.66-34.43,23.13-34.43,51.66-34.43,51.66,15.41,51.66,34.43"/>
        <g>
          <g class="st20">
            <g class="st20">
              <text class="st21" transform="translate(122.5 160.07)"><tspan x="0" y="0">Feldbotanikkurs</tspan></text>
            </g>
          </g>
          <g class="st20">
            <g class="st20">
              <text class="st21" transform="translate(157.69 175.74)"><tspan x="0" y="0">400</tspan></text>
            </g>
          </g>
        </g>
      </g>
    </a>
    <a href="https://www.botanikexkursionen.ch/beschreibung/feldbotanik-kurs-600" target="_blank" rel="noopener noreferrer">
      <g id="FBK600">
        <path class="st15" d="M220.24,61.38c0,19.01-23.13,34.43-51.66,34.43s-51.66-15.41-51.66-34.43,23.13-34.43,51.66-34.43,51.66,15.41,51.66,34.43"/>
        <g>
          <g class="st20">
            <g class="st20">
              <text class="st21" transform="translate(122.5 60.62)"><tspan x="0" y="0">Feldbotanikkurs</tspan></text>
            </g>
          </g>
          <g class="st20">
            <g class="st20">
              <text class="st21" transform="translate(157.69 76.29)"><tspan x="0" y="0">600</tspan></text>
            </g>
          </g>
        </g>
      </g>
    </a>
    <a href="https://www.botanikexkursionen.ch/beschreibung/moose" target="_blank" rel="noopener noreferrer">
      <g id="Moose">
        <path class="st2" d="M507.28,487.34h-65.19c0-19.32,14.59-34.99,32.59-34.99s32.59,15.67,32.59,34.99h.01Z"/>
        <g class="st20">
          <g class="st20">
            <text class="st23" transform="translate(463.47 475.2)"><tspan x="0" y="0">Moose</tspan></text>
          </g>
        </g>
      </g>
    </a>
    <a href="https://www.botanikexkursionen.ch/beschreibung/pilze" target="_blank" rel="noopener noreferrer">
      <g id="Pilze-GK" serif:id="Pilze GK">
        <path class="st10" d="M402.96,443.7c2.28,0,14.52,6.48,15.94,8.44s4.44,16.53,3.94,18.97c-.51,2.44-8.98,14.13-11.03,15.21-2.05,1.09-15.64,1.09-17.69,0s-10.53-12.77-11.03-15.21c-.51-2.44,1.74-16.48,3.16-18.44s14.44-8.97,16.72-8.97h-.01Z"/>
        <g>
          <g class="st20">
            <g class="st20">
              <text class="st23" transform="translate(394.85 463.78)"><tspan x="0" y="0">Pilze</tspan></text>
            </g>
          </g>
          <g class="st20">
            <g class="st20">
              <text class="st23" transform="translate(385.5 471.5)"><tspan x="0" y="0">Grundkurs</tspan></text>
            </g>
          </g>
        </g>
      </g>
    </a>
    <a href="https://www.botanikexkursionen.ch/beschreibung/pilze" target="_blank" rel="noopener noreferrer">
      <g id="Pilze-VK" serif:id="Pilze VK">
        <path class="st10" d="M434.68,422.65h-65.48c-.82-1.75-1.23-3.57-1.23-5.39,0-11.13,15.22-20.16,33.97-20.16s33.97,9.03,33.97,20.16c0,1.82-.42,3.63-1.23,5.39h0Z"/>
        <g class="st20">
          <g class="st20">
            <g class="st20">
              <text class="st23" transform="translate(375.97 415.24)"><tspan x="0" y="0">Pilze V</tspan></text>
            </g>
          </g>
          <g class="st20">
            <g class="st20">
              <text class="st23" transform="translate(398.83 415.24)"><tspan x="0" y="0">e</tspan></text>
            </g>
          </g>
          <g class="st20">
            <g class="st20">
              <text class="st23" transform="translate(402.99 415.24)"><tspan x="0" y="0">r</tspan></text>
            </g>
          </g>
          <g class="st20">
            <g class="st20">
              <text class="st23" transform="translate(405.48 415.24)"><tspan x="0" y="0">tiefung</tspan></text>
            </g>
          </g>
        </g>
      </g>
    </a>
    <a href="https://www.botanikexkursionen.ch/beschreibung/fruehblueher-kurs" target="_blank" rel="noopener noreferrer">
      <g id="Frühblüher">
        <path class="st17" d="M326.1,467.38c0,10.91-13.27,19.76-29.64,19.76s-29.64-8.85-29.64-19.76,13.27-19.76,29.64-19.76,29.64,8.85,29.64,19.76"/>
        <g class="st20">
          <g class="st20">
            <text class="st23" transform="translate(278.38 469.17)"><tspan x="0" y="0">Frühblüher</tspan></text>
          </g>
        </g>
      </g>
    </a>
    <a href="https://www.botanikexkursionen.ch/beschreibung/gehoelze-kurs" target="_blank" rel="noopener noreferrer">
      <g id="Bäumer">
        <path class="st6" d="M325.51,419.88c0,10.89-13.25,19.72-29.58,19.72s-29.58-8.83-29.58-19.72,13.25-19.72,29.58-19.72,29.58,8.83,29.58,19.72"/>
        <g>
          <g class="st20">
            <g class="st20">
              <text class="st23" transform="translate(281.28 417.28)"><tspan x="0" y="0">Bäume &amp;</tspan></text>
            </g>
          </g>
          <g class="st20">
            <g class="st20">
              <text class="st23" transform="translate(280.46 425.61)"><tspan x="0" y="0">Sträucher</tspan></text>
            </g>
          </g>
        </g>
      </g>
    </a>
    <a href="https://www.botanikexkursionen.ch/beschreibung/gehoelze-kurs" target="_blank" rel="noopener noreferrer">
      <g id="Knospen">
        <path class="st7" d="M326.04,361.58c0,10.89-13.24,19.72-29.58,19.72s-29.58-8.83-29.58-19.72,13.24-19.72,29.58-19.72,29.58,8.83,29.58,19.72"/>
        <g class="st20">
          <g class="st20">
            <text class="st23" transform="translate(281.7 363.62)"><tspan x="0" y="0">Knospen</tspan></text>
          </g>
        </g>
      </g>
    </a>
    <a href="https://www.botanikexkursionen.ch/beschreibung/neophyten-kurs/?" target="_blank" rel="noopener noreferrer">
      <g id="Neophyten">
        <path class="st9" d="M67.61,467.38c0,10.91-13.27,19.76-29.64,19.76s-29.64-8.85-29.64-19.76,13.27-19.76,29.64-19.76,29.64,8.85,29.64,19.76"/>
        <g>
          <g class="st20">
            <g class="st20">
              <text class="st23" transform="translate(23.66 459.81)"><tspan x="0" y="0">Invasive</tspan></text>
            </g>
          </g>
          <g class="st20">
            <g class="st20">
              <text class="st23" transform="translate(15.76 468.14)"><tspan x="0" y="0">Neophyten &amp;</tspan></text>
            </g>
          </g>
          <g class="st20">
            <g class="st20">
              <text class="st23" transform="translate(12.64 476.48)"><tspan x="0" y="0">Ersatzpﬂanzen</tspan></text>
            </g>
          </g>
        </g>
      </g>
    </a>
    <a href="https://www.botanikexkursionen.ch/beschreibung/wiesengraeser-grundkurs" target="_blank" rel="noopener noreferrer">
      <g id="Wiesengräser-GK" serif:id="Wiesengr‚Äö√†√∂¬¨√üser GK">
        <path class="st16" d="M67.56,419.88c0,10.89-13.24,19.72-29.58,19.72s-29.58-8.83-29.58-19.72,13.24-19.72,29.58-19.72,29.58,8.83,29.58,19.72"/>
        <g>
          <g class="st20">
            <g class="st20">
              <text class="st23" transform="translate(14.91 417.9)"><tspan x="0" y="0">Wiesengräser</tspan></text>
            </g>
          </g>
          <g class="st20">
            <g class="st20">
              <text class="st23" transform="translate(21.07 424.84)"><tspan x="0" y="0">Grundkurs</tspan></text>
            </g>
          </g>
        </g>
      </g>
    </a>
    <a href="https://www.botanikexkursionen.ch/beschreibung/sauergraeser-kurs" target="_blank" rel="noopener noreferrer">
      <g id="Sauergräser">
        <path class="st16" d="M67.56,251.8c0,10.89-13.24,19.72-29.58,19.72s-29.58-8.83-29.58-19.72,13.24-19.72,29.58-19.72,29.58,8.83,29.58,19.72"/>
        <g class="st20">
          <g class="st20">
            <text class="st23" transform="translate(17.4 254.16)"><tspan x="0" y="0">Sauergräser</tspan></text>
          </g>
        </g>
      </g>
    </a>
    <a href="https://www.botanikexkursionen.ch/beschreibung/wiesengraeser-vertiefungskurs" target="_blank" rel="noopener noreferrer">
      <g id="Wiesegräser-VK" serif:id="Wiesegr‚Äö√†√∂¬¨√üser VK">
        <path class="st16" d="M67.56,301.73c0,10.89-13.24,19.72-29.58,19.72s-29.58-8.83-29.58-19.72,13.24-19.72,29.58-19.72,29.58,8.83,29.58,19.72"/>
        <g>
          <g class="st20">
            <g class="st20">
              <text class="st23" transform="translate(14.31 299.39)"><tspan x="0" y="0">Wiesengräser</tspan></text>
            </g>
          </g>
          <g class="st20">
            <g class="st20">
              <g class="st20">
                <text class="st23" transform="translate(20.71 307.72)"><tspan x="0" y="0">V</tspan></text>
              </g>
            </g>
            <g class="st20">
              <g class="st20">
                <text class="st23" transform="translate(25.28 307.72)"><tspan x="0" y="0">e</tspan></text>
              </g>
            </g>
            <g class="st20">
              <g class="st20">
                <text class="st23" transform="translate(29.44 307.72)"><tspan x="0" y="0">r</tspan></text>
              </g>
            </g>
            <g class="st20">
              <g class="st20">
                <text class="st23" transform="translate(31.93 307.72)"><tspan x="0" y="0">tiefung</tspan></text>
              </g>
            </g>
          </g>
        </g>
      </g>
    </a>
    <a href="https://www.botanikexkursionen.ch/beschreibung/korbbluetler-kurs" target="_blank" rel="noopener noreferrer">
      <g id="Korbblütler">
        <path class="st8" d="M67.56,199.96c0,10.89-13.24,19.72-29.58,19.72s-29.58-8.83-29.58-19.72,13.24-19.72,29.58-19.72,29.58,8.83,29.58,19.72"/>
        <g class="st20">
          <g class="st20">
            <text class="st23" transform="translate(19.89 201.76)"><tspan x="0" y="0">Korbblütler</tspan></text>
          </g>
        </g>
      </g>
    </a>
    <a href="https://www.botanikexkursionen.ch/beschreibung/alpenflora-grundkurs" target="_blank" rel="noopener noreferrer">
      <g id="Alpenflora">
        <path class="st5" d="M326.1,301.73c0,10.91-13.27,19.76-29.64,19.76s-29.64-8.85-29.64-19.76,13.27-19.76,29.64-19.76,29.64,8.85,29.64,19.76"/>
        <g>
          <g class="st20">
            <g class="st20">
              <text class="st23" transform="translate(280.63 298.92) scale(.94 1)"><tspan x="0" y="0">Alpenﬂora</tspan></text>
            </g>
          </g>
          <g class="st20">
            <g class="st20">
              <text class="st23" transform="translate(280.04 307.25) scale(.94 1)"><tspan x="0" y="0">Grundkurs</tspan></text>
            </g>
          </g>
        </g>
      </g>
    </a>
    <a href="https://www.botanikexkursionen.ch/beschreibung/regionale-flora-kurs/glarnerland/" target="_blank" rel="noopener noreferrer">
      <g id="Glarnerland">
        <path class="st13" d="M326.1,251.8c0,10.91-13.27,19.76-29.64,19.76s-29.64-8.85-29.64-19.76,13.27-19.76,29.64-19.76,29.64,8.85,29.64,19.76"/>
        <g>
          <g class="st20">
            <g class="st20">
              <text class="st23" transform="translate(287.94 249.05)"><tspan x="0" y="0">Flora</tspan></text>
            </g>
          </g>
          <g class="st20">
            <g class="st20">
              <text class="st23" transform="translate(276.92 257.38)"><tspan x="0" y="0">Glarnerland</tspan></text>
            </g>
          </g>
        </g>
      </g>
    </a>
    <a href="https://www.botanikexkursionen.ch/beschreibung/regionale-flora-kurs/wallis/" target="_blank" rel="noopener noreferrer">
      <g id="Wallis">
        <path class="st13" d="M326.1,199.96c0,10.91-13.27,19.76-29.64,19.76s-29.64-8.85-29.64-19.76,13.27-19.76,29.64-19.76,29.64,8.85,29.64,19.76"/>
        <g class="st20">
          <g class="st20">
            <g class="st20">
              <text class="st23" transform="translate(277.07 202.38)"><tspan x="0" y="0">Flora W</tspan></text>
            </g>
          </g>
          <g class="st20">
            <g class="st20">
              <text class="st23" transform="translate(302.96 202.38)"><tspan x="0" y="0">a</tspan></text>
            </g>
          </g>
          <g class="st20">
            <g class="st20">
              <text class="st23" transform="translate(307.12 202.38)"><tspan x="0" y="0">l</tspan></text>
            </g>
          </g>
          <g class="st20">
            <g class="st20">
              <text class="st23" transform="translate(308.78 202.38)"><tspan x="0" y="0">lis</tspan></text>
            </g>
          </g>
        </g>
      </g>
    </a>
    <a href="https://www.botanikexkursionen.ch/beschreibung/regionale-flora-kurs/montenegro/" target="_blank" rel="noopener noreferrer">
      <g id="Ausland">
        <path class="st13" d="M326.04,148.78c0,10.89-13.24,19.72-29.58,19.72s-29.58-8.83-29.58-19.72,13.24-19.72,29.58-19.72,29.58,8.83,29.58,19.72"/>
        <g>
          <g class="st20">
            <g class="st20">
              <text class="st23" transform="translate(287.94 141.64)"><tspan x="0" y="0">Flora</tspan></text>
            </g>
          </g>
          <g class="st20">
            <g class="st20">
              <text class="st23" transform="translate(272.97 149.36)"><tspan x="0" y="0">Montenegro &amp;</tspan></text>
            </g>
          </g>
          <g class="st20">
            <g class="st20">
              <text class="st23" transform="translate(281.91 157.08)"><tspan x="0" y="0">Albanien</tspan></text>
            </g>
          </g>
        </g>
      </g>
    </a>
    <a href="https://www.botanikexkursionen.ch/beschreibung/regionale-flora-kurs/zermatt/" target="_blank" rel="noopener noreferrer">
      <g id="Zermatt">
        <path class="st13" d="M326.35,61.38c0,10.91-13.27,19.76-29.64,19.76s-29.64-8.85-29.64-19.76,13.27-19.76,29.64-19.76,29.64,8.85,29.64,19.76"/>
        <g class="st20">
          <g class="st20">
            <text class="st23" transform="translate(273.75 62.57)"><tspan x="0" y="0">Flora Zermatt</tspan></text>
          </g>
        </g>
      </g>
    </a>
    <a href="https://www.botanikexkursionen.ch/beschreibung/repetitions-kurs" target="_blank" rel="noopener noreferrer">
      <g id="Repi400">
        <path class="st15" d="M67.56,148.78c0,10.89-13.24,19.72-29.58,19.72s-29.58-8.83-29.58-19.72,13.24-19.72,29.58-19.72,29.58,8.83,29.58,19.72"/>
        <g class="st20">
          <g class="st20">
            <text class="st23" transform="translate(13.86 150.42)"><tspan x="0" y="0">Repetition 400</tspan></text>
          </g>
        </g>
      </g>
    </a>
    <a href="https://www.botanikexkursionen.ch/beschreibung/repetitions-kurs" target="_blank" rel="noopener noreferrer">
      <g id="Repi600">
        <path class="st15" d="M67.56,38.93c0,10.89-13.24,19.72-29.58,19.72s-29.58-8.83-29.58-19.72,13.24-19.72,29.58-19.72,29.58,8.83,29.58,19.72"/>
        <g class="st20">
          <g class="st20">
            <text class="st23" transform="translate(13.86 40.54)"><tspan x="0" y="0">Repetition 600</tspan></text>
          </g>
        </g>
      </g>
    </a>
    <a href="https://www.botanikexkursionen.ch/beschreibung/exkursionsleiter-kurs" target="_blank" rel="noopener noreferrer">
      <g id="ELK">
        <path class="st12" d="M67.61,91.65c0,10.91-13.27,19.76-29.64,19.76s-29.64-8.85-29.64-19.76,13.27-19.76,29.64-19.76,29.64,8.85,29.64,19.76"/>
        <g>
          <g class="st20">
            <g class="st20">
              <text class="st23" transform="translate(18.44 89.61)"><tspan x="0" y="0">Exkursions-</tspan></text>
            </g>
          </g>
          <g class="st20">
            <g class="st20">
              <text class="st23" transform="translate(22.81 97.94)"><tspan x="0" y="0">leiterkurs</tspan></text>
            </g>
          </g>
        </g>
      </g>
    </a>
    <path class="st19" d="M260,257.34l6.81-3.37-7.47-1.4.66,4.76h0Z"/>
    <path class="st1" d="M261.1,254.76c-12.47,1.72-41.04,5.66-41.04,5.66"/>
    <path class="st19" d="M40.34,329.08l-2.4-7.21-2.4,7.21h4.81,0Z"/>
    <path class="st1" d="M37.94,327.64v72.71"/>
    <path class="st19" d="M259.13,363.99l7.21-2.4-7.21-2.4v4.81h0Z"/>
    <path class="st1" d="M260.57,361.58h-40.33"/>
    <path class="st19" d="M260.92,425.54l5.42-5.33-7.53,1.01,2.11,4.32h0Z"/>
    <path class="st1" d="M261.16,422.74c-12.99,6.36-45.9,22.47-45.9,22.47"/>
    <path class="st19" d="M172.26,403.22l-2.4-7.21-2.4,7.21h4.81-.01Z"/>
    <path class="st1" d="M169.86,401.78v23.68"/>
    <path class="st19" d="M260.45,153.01l6.37-4.15-7.58-.5,1.22,4.65h-.01Z"/>
    <path class="st1" d="M261.23,150.32c-12.4,3.24-41.17,10.76-41.17,10.76"/>
    <path class="st19" d="M74.63,42.75l-6.57-3.82,7.55-.89-.98,4.71Z"/>
    <path class="st1" d="M119.92,49.72s-32.78-6.82-46.22-9.61"/>
    <path class="st19" d="M74.28,153l-6.42-4.06,7.58-.6-1.15,4.67h-.01Z"/>
    <path class="st1" d="M116.98,161.08s-30.63-7.58-43.52-10.76"/>
    <path class="st19" d="M74.43,257.81l-6.88-3.23,7.44-1.54-.56,4.77h0Z"/>
    <path class="st1" d="M116.98,260.42s-30.68-3.63-43.7-5.17"/>
    <path class="st19" d="M75.46,200.22l-7.59-.31,6.26-4.31,1.33,4.62h0Z"/>
    <path class="st1" d="M128.29,182.47s-39.96,11.54-54.89,15.85"/>
    <path class="st19" d="M260.92,293.49l7.53,1.01-5.42-5.33-2.11,4.32h0Z"/>
    <path class="st1" d="M263.27,291.97c-12.79-6.26-44.81-21.93-44.81-21.93"/>
    <path class="st19" d="M259.85,63.78l7.21-2.4-7.21-2.4v4.81h0Z"/>
    <path class="st1" d="M261.29,61.38h-40.96"/>
    <path class="st19" d="M73.02,81.82l-6.24,4.33,7.6.28-1.35-4.61h-.01Z"/>
    <path class="st1" d="M72.32,84.53c13.46-3.94,46.8-13.71,46.8-13.71"/>
    <path class="st19" d="M400.55,429.86l2.4-7.21,2.4,7.21h-4.81.01Z"/>
    <path class="st1" d="M402.96,443.7v-15.28"/>
    <path class="st19" d="M70.68,104.72l-4.71-5.96,7.35,1.94-2.63,4.02h-.01Z"/>
    <path class="st1" d="M128.14,139.5s-42.75-28.01-57.35-37.58"/>
    <path class="st19" d="M73.72,295.63l-5.86,4.84,7.59-.36s-1.73-4.48-1.73-4.48Z"/>
    <path class="st1" d="M73.24,298.39c14.13-5.47,51.22-19.81,51.22-19.81"/>
    <path class="st19" d="M298.31,388.51l-2.4-7.21-2.4,7.21h4.81-.01Z"/>
    <path class="st1" d="M295.9,387.07v12.76"/>
    <path class="st19" d="M265.06,213.73l3.97-6.48-7.06,2.81,3.1,3.68h-.01Z"/>
    <path class="st1" d="M264.61,210.96c-12.4,10.45-46.69,39.31-46.69,39.31"/>
    <path class="st19" d="M171.81,302.43l-2.4-7.21-2.4,7.21h4.81-.01Z"/>
    <path class="st1" d="M169.41,300.99v26.17"/>
    <path class="st19" d="M170.99,202.45l-2.46-7.19-2.34,7.23,4.81-.04h0Z"/>
    <path class="st1" d="M168.58,201.03c.08,8.96.21,25.22.21,25.22"/>
    <path class="st19" d="M171.19,103.02l-2.4-7.21-2.4,7.21h4.81-.01Z"/>
    <path class="st1" d="M168.79,101.58v24.79"/>
    <path class="st19" d="M269.43,343.26l6.67,3.64-3.15-6.92-3.52,3.27h0Z"/>
    <path class="st1" d="M272.17,342.68c-13.85-14.9-59.59-64.1-59.59-64.1"/>
    <path class="st19" d="M376.91,457.65l7.31,2.08-4.6-6.05-2.71,3.97Z"/>
    <path class="st19" d="M330.29,425.81l-4.6-6.05,7.31,2.08-2.71,3.97Z"/>
    <path class="st1" d="M379.46,456.47c-10.99-7.5-38.02-25.96-49.01-33.46"/>
    <path class="st24" d="M259.97,464.37l6.85,3.3-7.46,1.47.61-4.77h0Z"/>
    <path class="st4" d="M220.73,461.78s28.02,3.58,40.36,5.16"/>
    <path class="st24" d="M74.77,469.23l-7.45-1.49,6.86-3.28.6,4.77h-.01Z"/>
    <path class="st4" d="M116.38,461.59s-30.4,3.81-43.35,5.43"/>
    <path class="st24" d="M73.21,425.42l-5.45-5.3,7.54.97s-2.09,4.33-2.09,4.33Z"/>
    <path class="st4" d="M120.91,445.79s-34.58-16.71-47.96-23.17"/>
    <a href="https://www.botanikexkursionen.ch/kategorie/pruefungen-zertifikate" target="_blank" rel="noopener noreferrer">
      <g id="Zertifikat200">
        <path class="st3" d="M507.15,456.42s.67.61,1.11,2.49c.46,2.01.44,1.89,1.78,9.14,0,0-1.6-1.14-2.65.4l-1.03-9.11s-.32-2.11.29-2.83l.51-.07v-.02s0,0,0,0Z"/>
        <path class="st0" d="M506.16,453.59l-1.16-6.93"/>
        <path class="st14" d="M504.92,455.47c.14.85.93,1.42,1.78,1.29.85-.14,1.42-.93,1.29-1.78-.14-.85-.93-1.42-1.78-1.29-.85.14-1.42.93-1.29,1.78"/>
        <path class="st3" d="M497.49,450.12l-2.23,10.25s-16.94,3.98-28.03-6.89l3.08-9.69,11.6,9.19,15.57-2.86h0Z"/>
        <path class="st3" d="M510.31,445.63l-21.71-16.84-27.92,3.62,21.8,18.5,27.82-5.26h0s0-.01,0-.01Z"/>
        <g>
          <g class="st20">
            <g class="st20">
              <text class="st22" transform="translate(471.46 436.39) rotate(14.31)"><tspan x="0" y="0">Zertiprüfung</tspan></text>
            </g>
          </g>
          <g class="st20">
            <g class="st20">
              <text class="st22" transform="translate(480.5 444.93) rotate(14.31)"><tspan x="0" y="0">60</tspan></text>
            </g>
          </g>
        </g>
      </g>
    </a>
    <a href="https://www.botanikexkursionen.ch/kategorie/pruefungen-zertifikate" target="_blank" rel="noopener noreferrer">
      <g id="Zertifikat2001" data-name="Zertifikat200">
        <path class="st3" d="M221.2,236.31s.59.69.78,2.61c.2,2.05.19,1.93.6,9.29,0,0-1.44-1.33-2.68.06l.14-9.17s-.05-2.13.65-2.77h.51v-.02h0Z"/>
        <path class="st0" d="M220.58,233.38l-.27-7.02"/>
        <path class="st14" d="M219.11,235.08c.03.86.74,1.53,1.6,1.51.86-.03,1.53-.74,1.51-1.6-.03-.86-.74-1.53-1.6-1.51-.86.03-1.53.74-1.51,1.6"/>
        <path class="st3" d="M211.96,229l-3.13,9.41s-19.74,2.98-30.76-11.87l3.91-9.42,11.85,12.91,18.13-1.03h0Z"/>
        <path class="st3" d="M222.97,226.15l-19.38-19.48-28.15.02,19.26,21.13,28.26-1.66h.01Z"/>
        <g>
          <g class="st20">
            <g class="st20">
              <text class="st22" transform="translate(185.62 212.03) rotate(21.65)"><tspan x="0" y="0">Zertiprüfung</tspan></text>
            </g>
          </g>
          <g class="st20">
            <g class="st20">
              <text class="st22" transform="translate(192.49 221.65) rotate(21.65)"><tspan x="0" y="0">200</tspan></text>
            </g>
          </g>
        </g>
      </g>
    </a>
    <a href="https://www.botanikexkursionen.ch/kategorie/pruefungen-zertifikate" target="_blank" rel="noopener noreferrer">
      <g id="Zertifikat400">
        <path class="st3" d="M220.92,134.78s.74.54,1.35,2.37c.66,1.95.62,1.84,2.67,8.91,0,0-1.7-.98-2.6.66l-1.92-8.97s-.52-2.07,0-2.85l.49-.12h0Z"/>
        <path class="st0" d="M219.65,132.06l-1.84-6.78"/>
        <path class="st14" d="M218.61,134.05c.22.83,1.07,1.33,1.9,1.11s1.33-1.07,1.11-1.9-1.07-1.33-1.9-1.11-1.33,1.07-1.11,1.9"/>
        <path class="st3" d="M210.66,128.2l-2.89,9.49s-19.65,3.48-31.05-11.09l3.67-9.51,12.17,12.6,18.1-1.49h0Z"/>
        <path class="st3" d="M221.48,125.06l-19.86-18.98-28.14.73,19.79,20.63,28.21-2.38h0Z"/>
        <g>
          <g class="st20">
            <g class="st20">
              <text class="st22" transform="translate(183.77 111.43) rotate(20.26)"><tspan x="0" y="0">Zertiprüfung</tspan></text>
            </g>
          </g>
          <g class="st20">
            <g class="st20">
              <text class="st22" transform="translate(190.88 120.89) rotate(20.26)"><tspan x="0" y="0">400</tspan></text>
            </g>
          </g>
        </g>
      </g>
    </a>
    <a href="https://www.botanikexkursionen.ch/kategorie/pruefungen-zertifikate" target="_blank" rel="noopener noreferrer">
      <g id="Zertifikat600">
        <path class="st3" d="M220.61,34.73s.81.43,1.69,2.14c.95,1.83.89,1.73,4,8.4,0,0-1.83-.7-2.47,1.05l-3.27-8.57s-.83-1.96-.42-2.82l.47-.2h0Z"/>
        <path class="st0" d="M218.94,32.23l-2.85-6.42"/>
        <path class="st14" d="M218.21,34.36c.34.79,1.26,1.15,2.05.81.79-.34,1.15-1.26.81-2.05s-1.26-1.15-2.05-.81c-.79.34-1.15,1.26-.81,2.05"/>
        <path class="st3" d="M209.32,28.59l-2.83,9.51s-19.63,3.6-31.12-10.9l3.62-9.54,12.25,12.53,18.09-1.6h0Z"/>
        <path class="st3" d="M220.22,25.39l-19.98-18.86-28.13.9,19.92,20.51,28.19-2.55h0Z"/>
        <g>
          <g class="st20">
            <g class="st20">
              <text class="st22" transform="translate(182.12 12.84) rotate(19.25)"><tspan x="0" y="0">Zertiprüfung</tspan></text>
            </g>
          </g>
          <g class="st20">
            <g class="st20">
              <text class="st22" transform="translate(189.4 22.17) rotate(19.25)"><tspan x="0" y="0">600</tspan></text>
            </g>
          </g>
        </g>
      </g>
    </a>
    <g class="st20">
      <g class="st20">
        <text class="st18" transform="translate(136.91 509.68) rotate(-.08)"><tspan x="0" y="0">Starte hier</tspan></text>
      </g>
    </g>
  </g>
</svg>